<?xml version="1.0" encoding="UTF-8" standalone="no"?>
<!DOCTYPE svg PUBLIC "-//W3C//DTD SVG 1.1//EN" "http://www.w3.org/Graphics/SVG/1.1/DTD/svg11.dtd">
<svg width="100%" height="100%" viewBox="0 0 1280 1280" version="1.1" xmlns="http://www.w3.org/2000/svg" 
  xmlns:xlink="http://www.w3.org/1999/xlink" xml:space="preserve" xmlns:serif="http://www.serif.com/" 
  style="fill-rule:evenodd;clip-rule:evenodd;stroke-linecap:round;stroke-linejoin:round;stroke-miterlimit:1.5;">
    <path d="M640,9L1086.18,193.816L1271,640L1086.18,1086.18L640,1271L193.816,1086.18L9,640L193.816,193.816L640,9Z" style="fill:rgb(229,229,229);stroke:rgb(52,52,52);stroke-width:15px;"/>
    <g transform="matrix(0.841713,-0.348224,0.348224,0.841713,-121.56,324.168)">
        <path d="M640,9L1086.18,193.816L1271,640L1086.18,1086.18L640,1271L193.816,1086.18L9,640L193.816,193.816L640,9Z" style="fill:none;stroke:rgb(52,52,52);stroke-width:16.47px;"/>
    </g>
    <g transform="matrix(0.841713,0,0,0.841713,101.304,101.304)">
        <path d="M640,9L1086.18,193.816L1271,640L1086.18,1086.18L640,1271L193.816,1086.18L9,640L193.816,193.816L640,9Z" style="fill:none;stroke:rgb(52,52,52);stroke-width:17.82px;"/>
    </g>
    <g transform="matrix(1.08298,0,0,1.08298,-376.135,173.77)">
        <text x="501.705px" y="567.262px" style="font-family:'SourceSansPro-ExtraLight', 'Source Sans Pro', sans-serif;font-weight:200;font-size:554.029px;">L6D</text>
    </g>
    <g transform="matrix(1,0,0,1,-94.2794,198)">
        <text x="515.279px" y="860.923px" style="font-family:'SourceSansPro-Light', 'Source Sans Pro', sans-serif;font-weight:300;font-size:300px;">.ME</text>
    </g>
</svg>
