<svg xmlns="http://www.w3.org/2000/svg" xmlns:xlink="http://www.w3.org/1999/xlink" 
width="512" height="512" viewBox="0 0 512 512" zoomAndPan="disable" preserveAspectRatio="none" focusable="false">
    <title>l6d.me</title>
    <g transform="translate(0.000000,512.000000) scale(0.100000,-0.100000)"
        fill="#212121" stroke="none">
    <path d="M1355 4647 l-559 -323 -323 -559 -323 -559 0 -646 0 -646 323 -559
        323 -559 559 -323 559 -323 646 0 646 0 559 323 559 323 323 559 323 559 0
        646 0 646 -323 559 -323 559 -559 323 -559 323 -646 0 -645 0 -560 -323z
        m2370 -69 l541 -312 312 -541 312 -540 0 -625 0 -625 -312 -541 -313 -540
        -540 -312 -540 -312 -625 0 -625 0 -540 312 -541 312 -312 541 -312 540 0 624
        0 625 312 541 312 541 541 312 540 312 624 0 625 0 541 -312z"/>
    <path d="M2861 3660 c-328 -69 -588 -321 -678 -657 -24 -88 -26 -116 -27 -278
        0 -196 18 -310 70 -457 98 -274 279 -427 506 -428 225 0 390 132 474 380 27
        78 27 272 0 350 -48 141 -148 258 -271 317 -208 98 -444 22 -610 -196 -21 -28
        -42 -48 -47 -45 -14 9 -9 211 8 292 33 160 103 281 237 408 149 142 274 197
        447 198 81 1 116 -3 153 -18 37 -15 53 -17 71 -8 54 24 35 85 -38 121 -40 20
        -67 25 -150 27 -55 2 -121 -1 -145 -6z m32 -885 c71 -35 149 -116 185 -192 22
        -49 27 -75 30 -169 3 -84 0 -126 -13 -170 -61 -212 -268 -328 -472 -265 -133
        41 -225 143 -282 315 -17 52 -31 105 -31 118 0 38 99 196 165 264 127 130 280
        166 418 99z"/>
    <path d="M542 3494 c-14 -10 -22 -26 -22 -44 0 -52 26 -60 197 -60 l153 0 0
        -695 0 -695 -153 0 c-171 0 -197 -8 -197 -60 0 -62 -23 -60 708 -60 l663 0 -3
        316 c-3 299 -4 316 -22 330 -29 21 -63 17 -80 -8 -14 -19 -16 -62 -16 -270 l0
        -248 -390 0 -390 0 0 695 0 695 160 0 c147 0 162 2 180 20 11 11 20 29 20 40
        0 11 -9 29 -20 40 -19 19 -33 20 -393 20 -321 0 -376 -2 -395 -16z"/>
    <path d="M3432 3494 c-14 -10 -22 -26 -22 -44 0 -43 31 -60 112 -60 l68 0 0
        -695 0 -695 -68 0 c-81 0 -112 -17 -112 -60 0 -61 5 -62 442 -58 380 4 395 5
        455 27 80 29 171 88 246 159 96 92 157 195 198 333 26 92 38 381 20 497 -24
        152 -116 329 -231 442 -68 68 -194 136 -288 155 -51 11 -154 15 -432 15 -315
        0 -369 -2 -388 -16z m859 -132 c124 -49 222 -145 299 -292 60 -117 70 -167 70
        -371 0 -142 -4 -190 -20 -253 -54 -212 -213 -381 -405 -431 -45 -11 -116 -15
        -297 -15 l-238 0 0 696 0 696 268 -4 c247 -4 271 -6 323 -26z"/>
    <path d="M2184 1535 c-11 -27 4 -45 36 -45 l30 0 0 -324 0 -325 -37 -3 c-33
        -3 -38 -6 -38 -28 l0 -25 130 0 130 0 0 25 c0 24 -3 25 -62 28 l-63 3 1 327
        c0 180 3 323 5 317 2 -5 51 -113 107 -240 l103 -230 34 -3 35 -2 99 232 c55
        128 103 237 108 243 4 5 8 -138 8 -318 l0 -327 -64 0 c-50 0 -65 -4 -70 -16
        -14 -37 11 -45 143 -42 l126 3 0 25 c0 22 -5 25 -37 28 l-38 3 0 324 0 324 33
        3 c27 2 32 7 32 28 0 24 -2 25 -85 28 l-85 3 -100 -235 c-55 -129 -103 -231
        -107 -228 -4 4 -52 108 -107 232 l-100 225 -81 3 c-65 2 -81 0 -86 -13z"/>
    <path d="M3034 1535 c-13 -32 4 -45 56 -45 l50 0 0 -324 0 -325 -52 -3 c-49
        -3 -53 -5 -53 -28 l0 -25 323 -3 322 -2 0 119 c0 123 -9 151 -45 137 -12 -4
        -15 -25 -15 -101 l0 -95 -210 0 -210 0 0 155 0 155 95 0 95 0 0 -39 c0 -41 20
        -67 45 -57 12 4 15 28 15 126 0 98 -3 122 -15 126 -25 10 -45 -16 -45 -57 l0
        -39 -95 0 -95 0 0 140 0 140 195 0 195 0 0 -72 c0 -84 10 -109 37 -92 15 9 18
        28 21 118 l3 106 -306 0 c-262 0 -306 -2 -311 -15z"/>
    <path d="M1684 925 c-34 -23 -49 -69 -34 -105 17 -42 47 -60 97 -60 61 0 98
        34 98 90 0 34 -6 47 -28 66 -33 28 -100 33 -133 9z"/>
    </g>
</svg>