<svg xmlns="http://www.w3.org/2000/svg" xmlns:xlink="http://www.w3.org/1999/xlink" xml:space="preserve"
  width="100%" height="100%" viewBox="0 0 1280 1280">
  <defs>
    <path id="line" d="M286 361h873v64H286z" fill="#282828" />
  </defs>
  <g>
    <rect id="rounrect" x="15" y="15" rx="320" ry="320" width="1250" height="1250" fill="#FCFCFE" stroke="#282828" stroke-width="30" />
  </g>
  <g>
    <use xlink:href="#line" transform="matrix(1.22641 1.22537 -.33927 .33956 -112.754 -378.775)" />
    <use xlink:href="#line" transform="matrix(1.14265 1.14168 -.33927 .33956 65.85 -435.735)" />
    <use xlink:href="#line" transform="matrix(.89186 .8911 -.33927 .33956 362.258 -374.935)" />
    <use xlink:href="#line" transform="matrix(.64161 .64106 -.33927 .33956 657.414 -304.45)" />
    <use xlink:href="#line" transform="matrix(.3898 .38946 -.33927 .33956 949.268 -231.468)" />
  </g>
  <g>
    <use xlink:href="#line" transform="matrix(-.14097 .14134 -.33986 -.33896 1302.278 1228.867)" />
    <use xlink:href="#line" transform="matrix(-.27609 .27682 -.33986 -.33896 1234.331 1072.873)" />
    <use xlink:href="#line" transform="matrix(-.42692 .42806 -.33986 -.33896 1163.389 899.08)" />
    <use xlink:href="#line" transform="matrix(-.56508 .56658 -.33986 -.33896 1053.148 736.544)" />
    <use xlink:href="#line" transform="matrix(-.6075 .6091 -.33986 -.33896 936.433 594.495)" />
    <use xlink:href="#line" transform="matrix(-.55923 .56072 -.33986 -.33896 796.844 472.894)" />
    <use xlink:href="#line" transform="matrix(-.41685 .41796 -.33986 -.33896 628.132 393.596)" />
    <use xlink:href="#line" transform="matrix(-.279 .27973 -.33986 -.33896 472.047 318.883)" />
    <use xlink:href="#line" transform="matrix(-.15576 .15617 -.33986 -.33896 329.222 251.116)" />
  </g>
</svg>